<svg width="24" height="20" viewBox="0 0 24 20" fill="none" xmlns="http://www.w3.org/2000/svg">
<path d="M21.6 19.2H2.4C1.76348 19.2 1.15303 18.9471 0.702944 18.4971C0.252856 18.047 0 17.4365 0 16.8V2.2956C0.0269192 1.67735 0.291611 1.09339 0.738814 0.665641C1.18602 0.237891 1.78116 -0.000584687 2.4 1.07654e-06H21.6C22.2365 1.07654e-06 22.847 0.252857 23.2971 0.702945C23.7471 1.15303 24 1.76348 24 2.4V16.8C24 17.4365 23.7471 18.047 23.2971 18.4971C22.847 18.9471 22.2365 19.2 21.6 19.2ZM2.4 4.6416V16.8H21.6V4.6416L12 11.04L2.4 4.6416ZM3.36 2.4L12 8.16L20.64 2.4H3.36Z" fill="#1D1D1D"/>
</svg>
