<svg width="24" height="25" viewBox="0 0 24 25" fill="none" xmlns="http://www.w3.org/2000/svg">
<path d="M12.0027 6.73391C8.59744 6.73391 5.85075 9.4812 5.85075 12.8872C5.85075 16.2932 8.59744 19.0405 12.0027 19.0405C15.4079 19.0405 18.1546 16.2932 18.1546 12.8872C18.1546 9.4812 15.4079 6.73391 12.0027 6.73391ZM12.0027 16.8877C9.80212 16.8877 8.00312 15.0936 8.00312 12.8872C8.00312 10.6808 9.79677 8.88676 12.0027 8.88676C14.2086 8.88676 16.0022 10.6808 16.0022 12.8872C16.0022 15.0936 14.2032 16.8877 12.0027 16.8877V16.8877ZM19.8412 6.48221C19.8412 7.28016 19.1987 7.91744 18.4062 7.91744C17.6085 7.91744 16.9713 7.2748 16.9713 6.48221C16.9713 5.68962 17.6138 5.04697 18.4062 5.04697C19.1987 5.04697 19.8412 5.68962 19.8412 6.48221ZM23.9157 7.93886C23.8247 6.01629 23.3856 4.31329 21.9775 2.91019C20.5747 1.50709 18.8721 1.06795 16.9499 0.971554C14.9689 0.859091 9.03112 0.859091 7.05008 0.971554C5.1333 1.06259 3.43068 1.50173 2.02253 2.90484C0.614389 4.30794 0.180703 6.01094 0.0843279 7.93351C-0.0281093 9.91499 -0.0281093 15.8541 0.0843279 17.8355C0.175349 19.7581 0.614389 21.4611 2.02253 22.8642C3.43068 24.2673 5.12794 24.7065 7.05008 24.8029C9.03112 24.9153 14.9689 24.9153 16.9499 24.8029C18.8721 24.7118 20.5747 24.2727 21.9775 22.8642C23.3803 21.4611 23.8193 19.7581 23.9157 17.8355C24.0281 15.8541 24.0281 9.92034 23.9157 7.93886V7.93886ZM21.3564 19.9616C20.9388 21.0113 20.1303 21.8199 19.0755 22.243C17.496 22.8696 13.7481 22.725 12.0027 22.725C10.2572 22.725 6.50396 22.8642 4.92984 22.243C3.88042 21.8253 3.07195 21.0166 2.64897 19.9616C2.02253 18.3818 2.16709 14.6331 2.16709 12.8872C2.16709 11.1414 2.02789 7.38726 2.64897 5.81279C3.06659 4.76314 3.87507 3.95448 4.92984 3.53141C6.50931 2.90483 10.2572 3.04943 12.0027 3.04943C13.7481 3.04943 17.5014 2.91019 19.0755 3.53141C20.1249 3.94913 20.9334 4.75779 21.3564 5.81279C21.9828 7.39262 21.8383 11.1414 21.8383 12.8872C21.8383 14.6331 21.9828 18.3872 21.3564 19.9616Z" fill="#1D1D1D"/>
</svg>
